<svg xmlns="http://www.w3.org/2000/svg" viewBox="0 0 64 64" width="64" height="64">
  <!-- 붉은 라운드 배경 -->
  <rect x="0" y="0" width="64" height="64" rx="14" fill="#c01616"/>
  <rect x="0" y="0" width="64" height="64" rx="14" fill="#8f1010" opacity="0.0"/>

  <!-- 자유의 횃불: 불꽃 (크게) -->
  <path d="M32 6
           C 24 16, 22 24, 27 31
           C 28 26, 30 24, 32 22
           C 34 28, 40 31, 38 38
           C 45 33, 45 20, 37 12
           C 36 16, 34 17, 33 15
           C 34 11, 33 9, 32 6 Z"
        fill="#ffd23f"/>
  <path d="M32 14
           C 28 20, 27 25, 30 29
           C 31 26, 31.5 25, 32 24
           C 33 27, 35 29, 34 33
           C 38 30, 38 22, 34 18
           C 33.5 20, 33 20, 32.5 19
           C 33 17, 32.5 15.5, 32 14 Z"
        fill="#ff7a18"/>

  <!-- 손잡이 받침 -->
  <path d="M22 40 H42 L38 46 H26 Z" fill="#ffe08a"/>
  <!-- 손잡이 기둥 -->
  <rect x="29" y="46" width="6" height="10" rx="2" fill="#ffc839"/>
  <!-- 밑단 -->
  <rect x="25" y="54" width="14" height="5" rx="2" fill="#ffe08a"/>
</svg>
